<svg xmlns="http://www.w3.org/2000/svg" xmlns:xlink="http://www.w3.org/1999/xlink" version="1.1" x="0px" y="0px" viewBox="0 0 603.4 440.75" enable-background="new 0 0 603.4 352.6" xml:space="preserve">
<g>
    <path d="M155.3,41.5c0.8,0.3,1.6,0,2-0.8l2.8-6.2c0.3-0.8,0-1.6-0.8-2l-2.4-1.1c-0.8-0.3-1.6,0-2,0.8l-2.8,6.2       c-0.3,0.8,0,1.6,0.8,2L155.3,41.5z" />
    <path d="M161.7,25.7c0.8,0.3,1.6,0,2-0.8l1.9-4.4c0.3-0.8,0-1.6-0.8-2l-2.4-1.1c-0.8-0.3-1.6,0-2,0.8l-1.9,4.4       c-0.3,0.8,0,1.6,0.8,2L161.7,25.7z" />
    <path d="M164.6,38.4c0.6,0.3,1.3,0,1.5-0.6l1.5-3.4c0.3-0.6,0-1.3-0.6-1.5l-1.9-0.8c-0.6-0.3-1.3,0-1.5,0.6l-1.5,3.4       c-0.3,0.6,0,1.3,0.6,1.5L164.6,38.4z" />
    <path d="M167.3,30.7c0.8,0.3,1.6,0,2-0.8l1.9-4.4c0.3-0.8,0-1.6-0.8-2l-2.4-1.1c-0.8-0.3-1.6,0-2,0.8l-1.9,4.4       c-0.3,0.8,0,1.6,0.8,2L167.3,30.7z" />
    <path d="M148.3,24.8c0.6,0.3,1.3,0,1.5-0.6l1.5-3.4c0.3-0.6,0-1.3-0.6-1.5l-1.9-0.8c-0.6-0.3-1.3,0-1.5,0.6l-1.5,3.4       c-0.3,0.6,0,1.3,0.6,1.5L148.3,24.8z" />
    <path d="M145.6,31.2c0.3,0.1,0.7,0,0.9-0.3l0.8-1.9c0.1-0.3,0-0.7-0.3-0.9l-1.1-0.5c-0.3-0.1-0.7,0-0.9,0.3l-0.8,1.9       c-0.1,0.3,0,0.7,0.3,0.9L145.6,31.2z" />
    <path d="M159.9,46.1c1,0.5,1.5,1.8,1,2.8l-7.2,15c-0.5,1-1.8,1.5-2.8,1l0,0c-1-0.5-1.5-1.8-1-2.8l7.2-15       C157.6,46.1,158.8,45.6,159.9,46.1L159.9,46.1z" />
    <path d="M179.4,47c-0.3,1.4-1.7,2.2-3,1.9l-9.3-2.2c-1.4-0.3-2.2-1.7-1.9-3l0,0c0.3-1.4,1.7-2.2,3-1.9l9.3,2.2       C178.9,44.3,179.7,45.6,179.4,47L179.4,47z" />
    <path d="M139.8,22.5c0.5,0.9,0.1,2.1-0.8,2.6l-8.9,4.6c-0.9,0.5-2.1,0.1-2.6-0.8l0,0c-0.5-0.9-0.1-2.1,0.8-2.6l8.9-4.6       C138.1,21.2,139.3,21.6,139.8,22.5L139.8,22.5z" />
    <path d="M161.6,43.9c0.6,0.3,1.3,0,1.5-0.6l0.7-1.5c0.3-0.6,0-1.3-0.6-1.5l-1.9-0.8c-0.6-0.3-1.3,0-1.5,0.6l-0.7,1.5       c-0.3,0.6,0,1.3,0.6,1.5L161.6,43.9z" />
    <path d="M154.5,92c0.5,0.7,1.4,0.8,2.1,0.3l3.8-2.9c0.7-0.5,0.8-1.4,0.3-2.1l-1.6-2.1c-0.5-0.7-1.4-0.8-2.1-0.3l-3.8,2.9       c-0.7,0.5-0.8,1.4-0.3,2.1L154.5,92z" />
    <path d="M167.8,90.4c0.4,0.2,0.9,0,1-0.4l1-2.3c0.2-0.4,0-0.9-0.4-1l-1.3-0.6c-0.4-0.2-0.9,0-1,0.4l-1,2.3       c-0.2,0.4,0,0.9,0.4,1L167.8,90.4z" />
    <path d="M171.2,78.8c0.3,0.3,0.8,0.3,1.1,0l1.8-1.7c0.3-0.3,0.3-0.8,0-1.1l-1-1c-0.3-0.3-0.8-0.3-1.1,0l-1.8,1.7       c-0.3,0.3-0.3,0.8,0,1.1L171.2,78.8z" />
    <path d="M152.5,198.8c-0.3,0.9-1.3,1.4-2.2,1l-13-4.8c-0.9-0.3-1.4-1.3-1-2.2l0,0c0.3-0.9,1.3-1.4,2.2-1l13,4.8       C152.4,196.9,152.9,197.9,152.5,198.8L152.5,198.8z" />
    <path d="M162.8,201.6c0,0.6-0.5,1.1-1.1,1.1h-5.9c-0.6,0-1.1-0.5-1.1-1.1l0,0c0-0.6,0.5-1.1,1.1-1.1h5.9       C162.3,200.6,162.8,201,162.8,201.6L162.8,201.6z" />
    <path d="M173.4,70.1c-0.3-1-0.9-1.8-1.8-2.2c-0.4-0.2-1.2-2.4-1.2-2.4l6.7,0.3l-0.2,5.5C176.8,71.2,173.4,70.4,173.4,70.1z" />
    <path d="M147.3,33.4h-3.8c0,0,0,0,0,0c-0.9,0-1.7-0.5-2.2-1.3l-0.8-1.7c-0.4-0.9-1.5-1.2-2.3-0.8l-4.9,2.5       c-0.9,0.4-1.2,1.5-0.8,2.3l1.3,2.7c0.4,0.7,1.2,1.1,1.9,0.9c0.1,0,0.1,0,0.2,0h11.3c1.3,0,2.3-1,2.3-2.3       C149.6,34.5,148.6,33.4,147.3,33.4z" />
    <path d="M153.1,45.2c-0.6-0.3-1.4-0.3-1.9,0.1c-0.1,0-0.2,0.1-0.2,0.1l-7.5,3.6c-0.4,0.2-0.7,0.5-0.8,0.8       c-0.3,0.5-0.4,1.2-0.1,1.8l3,6.4c0.2,0.5,0.5,1,1.1,1.2c1,0.5,2.3,0.1,2.8-1L154,48C154.6,47,154.1,45.7,153.1,45.2z" />
    <path d="M140.6,61.3l-1.3-1.4c0,0,0,0,0-0.1c-0.7-0.8-0.9-1.8-0.7-2.8l2.3-9.1c0.3-1.2-0.4-2.4-1.6-2.8       c-1.2-0.3-2.4,0.4-2.8,1.6l-0.4,1.5c-0.3,0.6-1,1.1-1.8,1.1c-0.8,0-1.4-0.4-1.8-1c0,0,0,0,0,0l-0.8-1.5       c-0.8-1.6-2.7-2.2-4.3-1.5c-0.2,0-0.5,0.1-0.7,0.2l-7.4,3.9c-0.3,0.1-0.5,0.3-0.7,0.5c-0.3,0.3-0.6,0.6-0.7,1       c-0.5,1.3,0.1,2.9,1.5,3.4l2.1,0.8l-0.1,0c0.1,0,0.1,0,0.1,0l0.1,0c0.4,0.2,0.6,0.5,0.6,0.9c0,0.4-0.3,0.7-0.6,0.8l-0.4,0       c0,0,0,0,0,0l0,0l-1.1,0.1c-1.2,0.1-2,1.2-1.9,2.3l0.4,3.7c0.1,1.2,1.2,2,2.3,1.9l10.2-1.2c0.8,0,1.6,0.2,2.2,0.7l1.5,1.7       c0.7,0.8,2,0.9,2.8,0.2l2.7-2.3C141.3,63.4,141.4,62.1,140.6,61.3z" />
    <path d="M126,37.7l-4.6-1.1c-0.3-0.1-0.7-0.1-1,0c-0.8,0-1.5,0.3-2,1l-6,7.2c-0.9,1.1-0.7,2.7,0.4,3.6c1.1,0.9,2.7,0.7,3.6-0.4       l4.2-5c0.8-0.7,1.8-1,2.8-0.7l1.5,0.4c1.4,0.3,2.7-0.6,3-1.9C128.2,39.3,127.3,37.9,126,37.7z" />
    <path d="M211.7,3.9c-3.3-4.3-9.4-5.1-13.7-1.9l-7.5,5.6c0,0,0,0,0,0l-15.9,11.6c-2.2,1.6-2.6,4.7-1,6.8       c0.3,0.4,0.7,0.8,1.1,1.1c1.1,1,1.3,2.8,0.3,4c-0.5,0.7-1.3,1-2.1,1.1c-1.1-0.1-2.2,0.4-2.8,1.4c-0.9,1.4-0.4,3.3,1,4.1       l3.7,2.7c0.3,0.2,0.7,0.3,1.1,0.4c0.9,0.3,2,0.2,2.9-0.5l16.5-12c0.4-0.2,0.7-0.4,1.1-0.7l3.1-2.3l1.4-1       c0.1-0.1,0.2-0.2,0.3-0.3l8.7-6.5C214.2,14.3,215,8.2,211.7,3.9z M178.6,32.6L178.6,32.6L178.6,32.6L178.6,32.6z" />
    <path d="M272.7,26.8c0-2.2-1.8-4-4-4h-0.2l0,0c-2.7,0-4.8-2.1-4.9-4.8l0,0c0-0.3,0-0.5,0-0.8c0-4.3-3.5-7.7-7.7-7.7h-2.4h-8.8       h-4.1c-2.8,0-5,2.1-5.2,4.8c-0.4,1.2-1.5,2-2.8,2H218c-4.2,0-7.7,3.2-8.1,7.3l-0.1,0c0,3.6-2.6,6.5-6,7h-1.2       c-4,0-7.3,3.3-7.3,7.3s3.3,7.3,7.3,7.3h0c3.1,0.3,5.5,3,5.5,6.2l0,0l2,24.6c0,0.9-0.5,1.8-1.3,2.3c-0.3,0.1-0.6,0.2-0.9,0.3       c0,0-0.1,0-0.1,0l0,0c-1.5,0.8-2.4,2.4-2.3,4.2l1.9,19.9c0.1,0.7,0.3,1.3,0.6,1.8c0.7,1.6,1.9,2.9,3.6,3.5       c3.4,1.4,7.2-0.3,8.6-3.7l4.5-11.2c0.3-0.6,0.9-1.1,1.6-1.3l0,0l8.4-2.7c1.4-0.5,2.2-1.8,2-3.1c0.1-0.6,0.5-1,1-1.2l0,0       l8.3-2.7c0.4-0.1,0.7-0.2,1.1-0.3l0.1,0c0.2-0.1,0.3-0.1,0.4-0.2c3-1.3,5.4-3.9,6.3-7.3l9-34.2c0-0.1,0.1-0.1,0.1-0.2       c0.1-0.5,0.3-0.9,0.6-1.3c0,0,0,0,0-0.1l8.3-9.3c0.5-0.6,0.8-1.4,0.7-2.1C272.7,27,272.7,26.9,272.7,26.8z" />
    <path d="M193.2,81.2l-10.9-24c-0.4-0.8-1.1-1.4-1.9-1.6c-0.4-0.3-0.9-0.5-1.4-0.7l-9.8-4.3c-3.8-1.6-8.1,0.3-9.7,4.1       c-1.6,3.8,0.3,8.1,4.1,9.7l9,3.9l4.3,9.6c0.5,1.2,0.1,2.6-0.7,3.5l-3.4,3l0,0c-1.3,1-1.6,2.9-0.6,4.2l5.8,8.6       c0.3,0.4,0.8,0.8,1.2,1c0,0,0.1,0,0.1,0.1c1.4,0.9,3.3,0.6,4.2-0.8l9.2-12.9C193.5,83.7,193.7,82.4,193.2,81.2z" />
    <path d="M218.3,245.3l-20.1-6.9c-1.9-0.9-3-3-2.7-5.1c0.7-2.5-0.6-5.2-3.2-6.1l-37.2-12.8c-2.6-0.9-5.4,0.5-6.3,3.1       c-0.2,0.4-0.2,0.9-0.3,1.4l0,0c0,0.7-0.5,1.2-1.2,1.2c-0.7,0-1.2-0.5-1.2-1.2l0,0l0,0c0-0.9-0.7-1.6-1.6-1.6h-6.5       c-1.3-0.1-2.5-0.9-3.1-2.2c-0.6-1.3-0.4-2.8,0.5-3.8c0.6-0.6,0.9-1.4,0.9-2.2c0-1.7-1.4-3.1-3.1-3.1h-1.3       c-1.3,0-2.7-0.7-3.4-1.9c-0.5-1-0.6-2-0.3-3l0.9-1.8c0.8-1.7,0.2-3.7-1.5-4.6c-1.7-0.8-3.7-0.2-4.6,1.5l-0.5,1.1       c-1.1,1.7-3,2.9-5.2,2.9c-2.6,0-4.8-1.5-5.7-3.8c0,0,0,0,0,0l-1.6-9l0,0c-0.3-3.6,2.2-6.8,5.6-7.5l18.6,0l0,0       c1.6,0,3,1.1,3.4,2.7l0,0l1.5,5.3c0.3,1.2,1.6,1.9,2.8,1.6s1.9-1.6,1.6-2.8l-2.5-8.7l0,0c-0.6-1.5,0-3.2,1.3-4l8.6-3.9       c2.7-1.2,3.9-4.4,2.8-7.1c-0.6-2.7,0.7-5.4,3-6.7l37.5-17.3c2.7-1.3,3.9-4.5,2.7-7.3c0-0.1-0.1-0.2-0.1-0.2       c0-0.3-0.1-0.6-0.2-0.8L185.1,106c-0.6-1.3-2.2-1.9-3.5-1.3c-0.9,0.4-1.4,1.2-1.5,2.1l0,0c0,1.9-1.5,3.4-3.4,3.4       c-1.7,0-3.2-1.3-3.4-3l0.3-5c0.1-3.3-2.5-6.1-5.9-6.2c-3.3-0.1-6.1,2.5-6.2,5.9l-1,14.4c-0.2,0.7-0.5,1.4-1.1,2l-8.9,6.9       c-0.8,0.3-1.7,0.1-2.3-0.6c-0.8-0.9-0.8-2.2,0.1-3.1l-0.1,0c0.1-0.1,0.2-0.3,0.3-0.4c1.5-2.5,0.7-5.7-1.8-7.2l-7-4.2       c-4.1-4.6-3.9-11.7,0.6-15.9l25.2-19.4c1.3-1,1.6-3,0.6-4.3c-1-1.3-3-1.6-4.3-0.6l-0.3,0.2l0,0c-1.7,1.4-4.2,1.3-5.7-0.3       c-1.3-1.7-3.8-1.9-5.5-0.6l-1.6,1.2l0,0c-1,0.8-2.4,0.8-3.4,0c-0.1-0.1-0.2-0.2-0.3-0.3c0,0-0.1,0-0.1-0.1l0,0       c-1.1-0.8-2.6-0.9-3.7,0l-3.7,2.9c-0.3,0.2-0.7,0.4-1.2,0.4c-1.2,0-2.1-1-2.1-2.1l0,0.1c-0.1-2.4-2.1-4.4-4.5-4.5       c-2.6-0.1-4.8,1.9-4.8,4.5l-0.2,3.4v-0.1c0,0.7-0.6,1.3-1.3,1.3c-0.6,0-1.2-0.5-1.3-1.1c0-3.1-1.2-6.3-3.6-8.7l-11.7-11.9       c-4.1-4.1-10.4-4.8-15.2-1.9c-2,1.2-4.7,0.8-6.2-1.1l0,0L68.5,34.3c-0.9-0.9-1.9-1.4-3-1.5c-1.8-0.6-3.9-0.7-5.8,0.1l-2,0.7       c-0.3,0.1-0.6,0.1-0.8,0.2l-5.5,2L50.6,36l0,0l-5,1.8c-2.4,1-3.5,3.6-2.6,6c0.4,1.8-0.5,3.6-2.1,4.4L33,51.1       c-2.4,1-3.6,3.7-2.6,6.1c1,2.4,3.7,3.6,6.1,2.6l2.1-0.7c0.9-0.1,1.7,0.4,2,1.3c0.3,0.9,0,1.8-0.8,2.3l-8.4,3.4       c-5.9,2.4-8.8,9.2-6.4,15.1c0.2,0.6,0.5,1.1,0.8,1.6c1.5,3.5-0.1,7.6-3.5,9.2l-21.1,8.4c-1.1,0.4-1.6,1.6-1.1,2.7       c0.4,1.1,1.6,1.6,2.7,1.1L38.4,90c0.8-0.3,1.2-1,1.3-1.8c0-0.3,0.2-0.6,0.5-0.7l9.6-3.9c6-1.4,12,2.2,13.5,8.2l0.1,0l10.2,41.4       c0.2,2.2-0.7,4.4-2.4,5.8c0,0-0.1,0.1-0.1,0.2c-4.1,3.5-5.6,9.4-3.3,14.5l9,21.4l0,0l6.1,14.5c0.5,1.1,1.7,1.6,2.8,1.2       c1.1-0.5,1.6-1.7,1.2-2.8l-5.3-12.8c-0.1-0.6,0.2-1.3,0.8-1.5c0.7-0.3,1.5,0,1.8,0.7l-0.1-0.2l10.4,20.3       c0.3,0.9,0.3,1.8,0.1,2.7c-0.1,0.1-0.1,0.2-0.2,0.3c-0.6,1.4,0,3.1,1.4,3.8l29.9,13.7c0.1,0.1,0.2,0.1,0.3,0.2l16.9,7.7       c0,0,0,0,0,0c1.8,0.9,3,2.8,3,4.9c0,2-1,3.7-2.6,4.7c-4.6,2.2-6.7,7.7-4.6,12.3l5.5,12.6c0.3,0.6,0.6,1.2,1,1.8l1.5,3.3       c1.4,3.2,4.1,5.4,7.2,6.3c0,0,0,0,0,0c2.7,0.7,4.6,3.3,4.4,6.2l0,0l-1.1,61.1c-0.2,8.9,6.8,16.3,15.8,16.5c1,0,2,0,2.9-0.2       c0.3-0.1,0.4-0.3,0.4-0.6c0-0.2-0.1-0.4-0.2-0.5l0,0c-3.6-1.5-5.5-5.3-4.8-9l8-26.6l0,0c0.3-1.2,1.6-1.9,2.8-1.6l0,0       c2,0.1,4-0.9,5-2.8l15.9-28.6l0,0c0.8-1.5,2.5-2.3,4.1-1.8c0,0,0.1,0,0.1,0c0.1,0.1,0.3,0.1,0.4,0.1c0.1,0,0.1,0,0.2,0.1l0,0       c1.9,0.4,3.9-0.6,4.6-2.4l9.7-23.9c0.1-0.2,0.1-0.4,0.2-0.5c0-0.1,0.1-0.2,0.1-0.3C223.7,250.3,221.8,246.5,218.3,245.3z" />
    <path d="M382.4,13c0.7-1.6,2.6-2.4,4.2-1.7l13.9,5.9c1.6,0.7,2.4,2.6,1.7,4.2l0,0c-0.7,1.6-2.6,2.4-4.2,1.7l-13.9-5.9       C382.4,16.6,381.7,14.7,382.4,13L382.4,13z" />
    <path d="M410.2,24.6c-0.5,1.1-1.8,1.5-2.8,1l-0.9-0.5c-1.1-0.5-1.5-1.8-1-2.8l0,0c0.5-1.1,1.8-1.5,2.8-1l0.9,0.5       C410.2,22.2,410.7,23.5,410.2,24.6L410.2,24.6z" />
    <path d="M374.6,259.7c-1.2-0.3-2.4,0.3-2.8,1.5l-0.8,2.6c-0.3,0.9-1.3,1.4-2.2,1.1c0,0-0.1,0-0.1,0c-1.2-0.3-2.4,0.3-2.8,1.5       l-1.3,4.2c-0.1,0.2-0.2,0.4-0.3,0.7l-2.1,7.4c-0.7,2.3,0.7,4.7,3,5.4c2.3,0.7,4.7-0.7,5.4-3l0.5-1.7c0,0,0,0,0,0l4.9-17       C376.5,261.3,375.8,260,374.6,259.7z" />
    <path d="M358.2,243.2c-0.9,0.7-1.4,2-1.1,3.2l-1.9,0.4l-1.4-6.3l5.1-1.1C358.8,239.5,358.6,242.9,358.2,243.2z" />
    <path d="M375.2,71.8L375.2,71.8c1.8,0,3.2-1.4,3.2-3.2h2V75l-5.2,0L375.2,71.8z" />
    <path d="M265.9,94.5c0,1.7-1.4,3.1-3.1,3.1h-10.2c-1.7,0-3.1-1.4-3.1-3.1l0,0c0-1.7,1.4-3.1,3.1-3.1h10.2       C264.6,91.5,265.9,92.9,265.9,94.5L265.9,94.5z" />
    <path d="M360.5,59.2l11.3-12.9c1-1.1,0.9-2.8-0.3-3.8c-1.1-1-2.8-0.9-3.8,0.3l-14,16c-0.1,0.1-0.2,0.2-0.2,0.3       c-0.8,0.7-1,1.8-0.4,2.6l7,10.5c0.6,0.9,1.9,1.2,2.8,0.5c0.9-0.6,1.2-1.9,0.5-2.8l-3-4.5C359.4,63.5,359.4,61.2,360.5,59.2z" />
    <g>
        <path d="M562.1,34.5l-34.4-4.3c-2.3-0.3-4.5,1.3-4.9,3.6c0,0.1-0.1,0.1-0.1,0.2c-0.1,1-0.7,2-1.7,2.5l-4.4,1.6l0,0        c-1.9,0.6-4-0.3-4.8-2.1c0,0,0-0.1,0-0.1c-0.7-2.3-3.2-3.5-5.5-2.8l-6.4,2.1c-1.2,0.4-2.5,0-3.3-0.8c-0.7-1-1.9-1.7-3.2-1.5        l-17.6,2.4l0,0.1c-0.5,0.1-0.8,0.5-0.8,1.1l-0.1,3.8c-0.3,1.9-1.4,3.5-3.3,4.4c-1.6,0.7-3.4,0.6-4.9-0.1l-10.8-7.7        c-1.3-1-3.2-0.6-4.1,0.7c-0.5,0.7-0.6,1.5-0.5,2.2l0,0c-0.1,0.9-0.6,1.7-1.5,2.1l-1.7,0.5l0,0c-0.9,0.3-1.8-0.1-2.3-0.8        c-0.2-0.9-1.1-1.4-2-1.2l-9.9,1.9l0,0c-0.6,0.2-1.1,0.6-1.4,1.2l-1.6,3v0c-0.1,0.3-0.5,0.5-0.8,0.4c-0.3-0.1-0.5-0.5-0.4-0.8        l0,0l2.5-9.6c0.4-1.7-0.5-3.4-2.1-3.9l0-0.1L420.2,25c-2.8-2-6.6-1.4-8.7,1.4c-1.4,1.9-1.5,4.3-0.6,6.3c0.4,1,0,2.2-0.9,3        l-11.9,8.6c-1.5,1.1-1.9,3.2-0.8,4.7c0.5,1.2,0.2,2.7-0.8,3.6l-1.4,1c-1.1,0.8-1.5,2.2-1.1,3.5l0,0l0,0        c0.1,0.2,0.2,0.4,0.3,0.6c0.4,1,0,2.2-0.9,2.9l-6.7,4.8l0.2-3.7c0.1-2.3-1.7-4.2-3.9-4.3c-2.3-0.1-4.2,1.7-4.3,3.9l-0.5,12.2        c-0.7-0.9-1.8-1.5-3-1.5c-2.3-0.1-4.2,1.7-4.3,3.9l-0.1,2.2c-0.1,0.4-0.4,0.7-0.8,0.8c-0.3,0.1-0.5,0.1-0.8,0        c-3.1-1.9-7.3-1.7-10.2,0.8l-19.4,16.6c-0.5,0.2-1,0.2-1.5,0c-0.4-0.2-0.7-0.5-0.9-0.9l0-1.8c0-1.1-0.7-2.1-1.7-2.5l0,0        c-0.7-0.4-1-1.3-0.6-2c0.3-0.6,1-0.9,1.7-0.7l2.2,1.2c1.9,1,4.2,0.3,5.3-1.5c1-1.9,0.3-4.2-1.5-5.3l-14.7-8l0,0        c-0.4-0.3-0.7-0.5-1.1-0.7c-5.5-3-12.4-1-15.4,4.5l-3.5,6.5l0.1,0l-7.5,14.2c0,0,0,0,0,0c-0.6,0.8-1.6,1.3-2.7,1.2l0,0        l-3.5-0.1c-1.4-0.1-2.7,1-2.7,2.5l-0.3,10.4c-0.1,1.4,1,2.7,2.5,2.7l3.5,0.2c1.3,0.1,2.4-0.8,2.7-2c0.1-0.2,0.2-0.3,0.4-0.3        c0.2,0,0.3,0.1,0.4,0.2l2.4,7c0.4,1.4,1.9,2.1,3.3,1.7l3.4-1c1.4-0.4,2.1-1.9,1.7-3.3l-1.4-3.9c0-0.3,0.1-0.7,0.4-0.9        c0.1-0.1,0.3-0.2,0.5-0.2h1.7c1.2,0,2.2-1,2.2-2.2c0-1.2-1-2.2-2.2-2.2h-0.9c-0.4-0.1-0.8-0.3-1-0.7c-0.2-0.3-0.2-0.7-0.1-1        l7.8-14.8c0.6-0.6,1.5-0.8,2.2-0.4c0.8,0.4,1.2,1.3,1,2.1l-3.7,9.2c-0.2,0.4-0.4,0.8-0.5,1.3c-0.4,1.4,0.4,3,1.8,3.5        c0.1,0,0.2,0.1,0.3,0.1c0.4,0.1,0.7,0.2,1.1,0.2h8.3l0,0c0.6,0,1.1,0.5,1.1,1.1c0,0.6-0.5,1.1-1.1,1.1h-1.7        c-4.5,0-8.1,3.6-8.1,8.1c0,2.6,1.2,4.9,3.2,6.4h-17.4v0c-1.3,0-2.5-0.8-3-2l-0.3-1.1c0-0.1,0-0.1,0-0.2h0l-0.5-2.1        c-0.2-1-1.3-1.7-2.3-1.5c-1,0.2-1.7,1.3-1.5,2.3l0.4,1.6c0.1,1.4-0.7,2.7-1.9,3.2c-0.1,0-0.2,0.1-0.3,0.1c0,0,0,0,0,0l0,0        c-2.5,1-4.3,3.2-4.7,5.8h0c0,0.1,0,0.2,0,0.3c0,0.1,0,0.3,0,0.4c-0.4,3.1-2.9,5.6-6,6h-5.7c-1.6,0-2.9,1.3-2.9,2.9        c0,1.6,1.3,2.9,2.9,2.9h0.7c1.6,0.3,2.8,1.7,2.8,3.3c0,1.6-1.1,2.9-2.6,3.3l-9.5,0c-1.6,0-2.8,1.2-2.9,2.8l-0.1,9        c0,1.6,1.2,2.8,2.8,2.9l12.5,0c1.6,0,2.8-1.2,2.9-2.8l0-1.9h0c0-1.2,0.9-2.3,2.1-2.5c0.1,0,0.2,0,0.3,0c0,0,0.1,0,0.1,0v0        c1.2-0.3,2.2-1.3,2.3-2.5h0c0-1.5,1.2-2.8,2.8-2.8v0h4.5c0.4,0,0.8-0.1,1.1-0.4l0,0c1.3-1.3,3.3-1.3,4.6,0l0,0l6.3,6.3        c0.5,0.7,0.7,1.6,0.4,2.5c-0.3,1-1.2,1.7-2.2,1.8l-0.8,0c-0.6,0-1.1,0.5-1.1,1.1c0,0.6,0.5,1.1,1.1,1.1l4.8,0.1        c0.4,0,0.7-0.2,0.9-0.5c0.1-0.1,0.1-0.1,0.2-0.2l2.7-3.4c0,0,0,0,0.1,0c1-1,1-2.6,0-3.7l-8.8-8.9c-0.3-0.6-0.2-1.2,0.3-1.7        c0.5-0.5,1.2-0.6,1.7-0.3l8.4,8.4c0.4,0.5,0.6,1.1,0.7,1.7v2.6c0,0.4,0.1,0.7,0.4,0.9c0,0,0,0,0,0l4.5,5.4        c0.2,0.3,0.7,0.4,1,0.3c0.5-0.1,1-0.4,1.1-1l1.3-5.7c0.4-1.1,1.6-1.8,2.8-1.5c1.2,0.3,2,1.5,1.7,2.7c-0.1,0.4-0.2,0.8-0.2,1.2        c0,2.1,1.4,3.8,3.4,4.3c0.1,0.1,0.3,0.1,0.5,0.1l8.1,1.7l-0.3-0.1c2.4,0.4,4.1,2.8,3.6,5.2c-0.4,2.2-2.3,3.7-4.5,3.7        l-16.7-3.5c-1.7-0.4-3.3,0.5-4,2.1l0,0c-0.3,1-1.3,1.7-2.3,1.6l-10.6-2.7l0,0c-1.2-0.3-2.1-1.3-2.4-2.4        c-0.2-2.4-2.3-4.2-4.7-4.1l-9.9,0.4c-0.1,0-0.2,0-0.3,0l-14.7,0.4c-4.5,0.2-8.1,4.1-7.9,8.6c0,0.1,0,0.2,0,0.3l0,0        c0,0.1,0,0.2,0,0.3c0,0.1,0,0.2,0,0.4c0.1,1.1-0.4,2.1-1.3,2.7c-7.5,4.7-12.3,13.2-11.9,22.7c0.6,14.1,12.5,25,26.6,24.3        l10-0.4l0,0c0.8-0.1,1.5,0.4,1.8,1.1c0.4,1.4,1.7,2.3,3.2,2.2l1.6-0.1l0,0c1.6-0.1,3,1.1,3.3,2.7l0.4,6.8c0.2,2.4,1.8,4.4,4,5        c0,0,0.1,0,0.1,0c1.1,0.3,2,1.1,2.4,2.3l1.3,10.3l0,0c0,0.1,0,0.2,0,0.2l0.1,0.4c0.1,1.2-0.6,2.4-1.7,3c0,0,0,0,0,0        c-2.6,1.6-3.8,4.8-2.7,7.7l10.1,28.8c1,2.8,3.7,4.5,6.6,4.3c0.2,0,0.5,0,0.8,0l8.9-1.5c0.8-0.1,1.5-0.6,2-1.2        c0.1-0.1,0.3-0.2,0.4-0.3l9.1-9.7c0.6-0.7,0.8-1.7,0.5-2.5l0,0c-0.6-1-0.3-2.3,0.8-2.9l0,0l3.3-1.4c0.8-0.3,1.2-1.1,1.2-1.9        c0-0.3,0-0.5-0.1-0.8l-1-3.1l0,0c-0.6-1.3-0.2-2.8,0.8-3.7l9.3-7c1-0.7,1.4-1.8,1.4-2.9c0-0.2,0-0.5,0-0.8l-2.8-18.1        l14.8-11.1c1.2-1,1.7-2.5,1.3-4c0-0.4,0.1-0.8,0.4-1.1l0,0l7-5.3c2-1.5,2.4-4.4,0.9-6.4c-1.2-1.6-3.3-2.1-5.1-1.5l0,0        c-1.2,0.1-2.3-0.5-2.9-1.6c-0.6-1.3-0.2-2.8,1-3.6l16.5-7.4c2.8-1.3,4.1-4.7,2.8-7.5c-1.3-2.8-4.7-4.1-7.5-2.8l-3,1.4        c-1.4,0.6-3,0.2-3.9-1l-0.3-0.6c0,0,0,0,0,0l0,0l-6.9-11.7c-0.3-0.9,0-1.9,0.8-2.4c0.8-0.6,1.9-0.4,2.6,0.3l4.6,7.1        c0.3,0.4,0.6,0.7,1,1c0.5,0.5,1.2,0.8,1.9,0.8l18.4,0.2c0.1,0,0.1,0,0.2,0c1.3,0,2.6,0.6,3.5,1.6l5.8,8.2        c0.6,0.9,1.6,1.4,2.6,1.5c1,0.2,1.9,1,2.3,2l0,0l8.9,17.4c0.5,0.9,1.2,1.5,2.1,1.8c0.5,0.2,1,0.3,1.5,0.4        c2.3,0.1,4.3-1.7,4.4-4l0.4-7.5c0-0.1,0-0.2,0.1-0.3c0-0.8,0.3-1.5,0.9-2.1l0.4-0.4c0,0,0.1,0,0.1-0.1l0,0l10.3-8.9        c0.4-0.3,0.7-0.5,0.8-0.7c0.6-0.5,1.3-0.8,2.1-0.8v0l1.7,0c0.7,0,1.4,0.3,2,0.8c0.2,0.2,0.7,0.5,1.1,0.9l2.7,2.5        c0.4,0.4,0.6,1,0.7,1.5l0.2,6c0,0.9,0.8,1.6,1.7,1.6c0.2,0,0.4,0,0.5-0.1c0.3-0.1,0.7-0.3,0.9-0.6l1.4-1.7c0,0,0,0,0,0        c0.3-0.5,0.9-0.7,1.6-0.6c0.6,0.1,1,0.5,1.2,1.1l1.4,11.6c0.1,1,1.1,1.8,2.1,1.6c1-0.1,1.8-1.1,1.6-2.1l-0.5-4.3l0,0        c0-0.5,0.3-0.9,0.7-1.1c0.4-0.2,0.9-0.1,1.2,0.2c0,0,0,0,0,0l5.9,4.9c2.6,2.1,6.4,1.8,8.6-0.8c2.1-2.6,1.8-6.4-0.8-8.6        l-3.9-3.3c-1.5-1.5-2-3.8-1.1-5.9c0.7-1.6,2.1-2.7,3.7-3l6,0.1c8.9,0,16.2-7.2,16.2-16.1c0-3.9-1.3-7.4-3.6-10.2l-7.1-11.1        c-1-2.4-0.3-5.2,2-6.7c2.3-1.5,5.2-1.1,7,0.9l7.1,11c0.9,1.4,2.8,1.8,4.2,0.9c1.4-0.9,1.8-2.8,0.9-4.2l-0.2-0.4        c-3.4-6.2-1.4-14.1,4.7-18l0,0c1.1-0.3,1.9-1.3,2-2.5l1.9-20.9c0-0.2,0-0.3,0-0.5c0.1-2.8-1.5-5.4-3.8-6.7        c-0.2-0.1-0.4-0.3-0.6-0.4l-6.2-3.1l0,0c-0.1,0-0.1-0.1-0.2-0.1l-0.2-0.1c-1.4-0.7-2.1-2.4-1.5-3.9l0,0l3.9-13.7l0,0        c0.3-1.5,1.5-2.6,3-2.6l0,0l11-0.9c0.3,0,0.5-0.1,0.7-0.2c1.2-0.2,2.2-1.1,2.4-2.3l1.4-7.3l0,0.1c0.4-2.3,2.6-3.9,5-3.4        c2,0.4,3.4,2.1,3.5,4.1l-3,16c-0.1,0.5-0.1,1,0.1,1.4c0,0.3,0.1,0.5,0.2,0.8l9.3,15.6c0.5,0.9,1.7,1.2,2.6,0.7        c0.4-0.2,0.7-0.6,0.8-1l0,0l0,0c0-0.2,0.1-0.3,0.1-0.5l2.6-13.7c0.1-0.8,0-1.5-0.3-2.2c0-0.2-0.1-0.5-0.2-0.7l-4.9-9.3        c-0.1-0.4-0.2-0.8-0.2-1.2l0.8-4.5l0,0c0.5-2.4,2.8-4,5.2-3.6c0.7,0.3,1.5,0,1.9-0.7l3.1-5.7l0,0l3.7-6.7        c0.9-1.6,0.3-3.5-1.3-4.4c0,0-0.1,0-0.1,0c-0.1-0.1-0.2-0.2-0.3-0.3l-6-3.9c-2.3-1.8-3-5.1-1.4-7.7c1.1-1.9,3.2-3,5.3-2.9        l1.9,0.2c2.4,0.3,4.6-1.4,4.9-3.8C566.2,37,564.5,34.8,562.1,34.5z M345.2,177.5l-0.2,0.1c-0.3-0.1-0.6-0.3-0.9-0.3l-0.1,0        L345.2,177.5z M315.6,261.7l-0.1-0.5L315.6,261.7C315.6,261.8,315.6,261.7,315.6,261.7z M467.4,210.6l0-0.2l0.2,0.1        L467.4,210.6z" />
        <path d="M301.5,160l0.1-3.5c0-0.8-0.6-1.5-1.4-1.5c-0.8,0-1.5,0.6-1.5,1.4l-0.1,3.5c0,0.8,0.6,1.5,1.4,1.5        C300.8,161.4,301.5,160.8,301.5,160z" />
    </g>
    <path d="M462.6,226.7c1.1-0.9,2.7-0.7,3.6,0.4l12.6,15.9c0.9,1.1,0.7,2.7-0.4,3.6l0,0c-1.1,0.9-2.7,0.7-3.6-0.4l-12.6-15.9       C461.3,229.1,461.5,227.5,462.6,226.7L462.6,226.7z" />
    <path d="M467.7,220.7c0.6-0.5,1.5-0.4,2,0.2l6.8,8.6c0.5,0.6,0.4,1.5-0.2,2l0,0c-0.6,0.5-1.5,0.4-2-0.2l-6.8-8.6       C467,222.1,467.1,221.2,467.7,220.7L467.7,220.7z" />
    <path d="M522.2,106.3c0.7-0.3,1.5,0.1,1.7,0.8l9,22.6c0.3,0.7-0.1,1.5-0.8,1.7l0,0c-0.7,0.3-1.5-0.1-1.7-0.8l-9-22.6       C521.2,107.3,521.5,106.5,522.2,106.3L522.2,106.3z" />
    <path d="M480.8,251c0-0.8,0.8-1.5,1.6-1.5l24.6,1.9c0.9,0,1.5,0.8,1.5,1.6l0,0c0,0.8-0.8,1.5-1.6,1.5l-24.6-1.9       C481.4,252.6,480.7,251.9,480.8,251L480.8,251z" />
    <path d="M505.2,247c0.6,0.3,1.3,0,1.6-0.6l3.2-7.3c0.3-0.6,0-1.3-0.6-1.6l-2-0.9c-0.6-0.3-1.3,0-1.6,0.6l-3.2,7.3       c-0.3,0.6,0,1.3,0.6,1.6L505.2,247z" />
    <path d="M518.1,224.9c0.7-0.3,0.9-1.1,0.6-1.8l-2-3.8c-0.3-0.7-1.1-0.9-1.8-0.6l-2.1,1.1c-0.7,0.3-0.9,1.1-0.6,1.8l2,3.8       c0.3,0.7,1.1,0.9,1.8,0.6L518.1,224.9z" />
    <path d="M481.1,200.8c-0.1,0.5,0.2,0.9,0.7,1l3.7,0.8c0.5,0.1,0.9-0.2,1-0.7l0.3-1.5c0.1-0.5-0.2-0.9-0.7-1l-3.7-0.8       c-0.5-0.1-0.9,0.2-1,0.7L481.1,200.8z" />
    <path d="M512.2,256.4c-0.1-0.5,0.2-1.1,0.7-1.2l7.5-2.1c0.5-0.1,1.1,0.2,1.2,0.7l0,0c0.1,0.5-0.2,1.1-0.7,1.2l-7.5,2.1       C512.9,257.2,512.3,256.9,512.2,256.4L512.2,256.4z" />
    <path d="M589.3,333.8c1.1,1,1.3,2.7,0.3,3.8l-11.5,13.2c-1,1.1-2.7,1.3-3.8,0.3l0,0c-1.1-1-1.3-2.7-0.3-3.8l11.5-13.2       C586.5,333,588.2,332.8,589.3,333.8L589.3,333.8z" />
    <path d="M506.4,186.1c0.8,0.2,1.2,1.1,0.9,1.8l-1.2,3.5c-0.2,0.8-1.1,1.2-1.8,0.9l0,0c-0.8-0.2-1.2-1.1-0.9-1.8l1.2-3.5       C504.8,186.3,505.6,185.9,506.4,186.1L506.4,186.1z" />
    <path d="M310.6,48.9c1.1-0.7,1.4-2.2,0.7-3.3l-5.9-9.2c-0.7-1.1-2.2-1.4-3.3-0.7l-3.6,2.3c-1.1,0.7-1.4,2.2-0.7,3.3l5.9,9.2       c0.7,1.1,2.2,1.4,3.3,0.7L310.6,48.9z" />
    <path d="M312.4,38.5c0.7-0.4,0.9-1.3,0.4-2l-3.5-5.5c-0.4-0.7-1.3-0.9-2-0.4l-2.1,1.4c-0.7,0.4-0.9,1.3-0.4,2l3.5,5.5       c0.4,0.7,1.3,0.9,2,0.4L312.4,38.5z" />
    <path d="M468.9,17.4c-0.4-0.9-1.4-1.4-2.3-1l-7.5,3c-0.9,0.4-1.4,1.4-1,2.3l1.2,2.9c0.4,0.9,1.4,1.4,2.3,1l7.5-3       c0.9-0.4,1.4-1.4,1-2.3L468.9,17.4z" />
    <path d="M538.5,144.4c0.8-0.3,1.1-1.1,0.9-1.9l-2.3-6.2c-0.3-0.8-1.1-1.1-1.9-0.9l-2.4,0.9c-0.8,0.3-1.1,1.1-0.9,1.9l2.3,6.2       c0.3,0.8,1.1,1.1,1.9,0.9L538.5,144.4z" />
    <path d="M594.9,332.7c0.7,0.7,1.8,0.6,2.5-0.1l5.5-5.9c0.7-0.7,0.6-1.8-0.1-2.5l-2.3-2.2c-0.7-0.7-1.8-0.6-2.5,0.1l-5.5,5.9       c-0.7,0.7-0.6,1.8,0.1,2.5L594.9,332.7z" />
    <path d="M540.7,335.7c0.8,0.2,1.7-0.4,1.8-1.2l1.3-6.9c0.2-0.8-0.4-1.7-1.2-1.8l-2.7-0.5c-0.8-0.2-1.7,0.4-1.8,1.2l-1.3,6.9       c-0.2,0.8,0.4,1.7,1.2,1.8L540.7,335.7z" />
    <path d="M436.7,225.2c0.4-0.3,0.5-0.8,0.3-1.2l-2.2-3.4c-0.3-0.4-0.8-0.5-1.2-0.3l-1.3,0.9c-0.4,0.3-0.5,0.8-0.3,1.2l2.2,3.4       c0.3,0.4,0.8,0.5,1.2,0.3L436.7,225.2z" />
    <path d="M521.3,236.7c0.4,0,0.7-0.4,0.7-0.8l-0.3-3.4c0-0.4-0.4-0.7-0.8-0.7l-1.3,0.1c-0.4,0-0.7,0.4-0.7,0.8l0.3,3.4       c0,0.4,0.4,0.7,0.8,0.7L521.3,236.7z" />
    <path d="M514.5,216.1c0.3,0,0.5-0.3,0.5-0.6l-0.2-2.4c0-0.3-0.3-0.5-0.6-0.5l-0.9,0.1c-0.3,0-0.5,0.3-0.5,0.6l0.2,2.4       c0,0.3,0.3,0.5,0.6,0.5L514.5,216.1z" />
    <path d="M510.1,214.9c0.2-0.2,0.1-0.6-0.1-0.7l-2-1.3c-0.2-0.2-0.6-0.1-0.7,0.1l-0.5,0.8c-0.2,0.2-0.1,0.6,0.1,0.7l2,1.3       c0.2,0.2,0.6,0.1,0.7-0.1L510.1,214.9z" />
    <path d="M535.6,159.1l-4.2-17.3c-0.2-1-1.3-1.6-2.3-1.4c-1,0.2-1.6,1.3-1.4,2.3l2.9,12.2c0,0,0,0.1,0,0.1       c0.1,1.4-0.6,2.8-2,3.4l0,0l-10.6,6.5c-1.3,0.9-1.7,2.7-0.8,4c0.1,0.1,0.1,0.2,0.2,0.3l1.7,3.6c0.5,1,1.7,1.4,2.6,0.9       c0.9-0.4,1.3-1.4,1-2.3l0,0c0,0,0-0.1-0.1-0.1c0-0.1,0-0.1-0.1-0.2l-0.1-0.2c-0.3-1.1,0.1-2.2,1.2-2.8l0,0l10.5-6.4       c0.3-0.2,0.5-0.4,0.7-0.7C535.5,160.5,535.8,159.8,535.6,159.1z" />
    <path d="M509.1,208.9L509.1,208.9c-0.9-0.8-1.3-1.9-1.3-3l1-2.7c0.3-1-0.2-2-1.2-2.3c-1-0.3-2,0.2-2.3,1.2l-1.5,4.4       c-0.1,0.2-0.1,0.3-0.1,0.5c-0.1,0.5,0,1.1,0.4,1.4l2.8,2.6c0.6,0.6,1.6,0.5,2.1-0.1C509.5,210.3,509.5,209.5,509.1,208.9z" />
    <path d="M503.5,229.3l0.3-0.3c0.8-0.8,0.8-2,0-2.8l-2.4-2.5c-0.8-0.8-2-0.8-2.8,0l-4,3.9c0,0,0,0,0,0l-7.8,7.7       c-1,0.9-1,2.5,0,3.4l5,5c0.9,1,2.5,1,3.4,0l7.8-7.7c1-0.9,1-2.5,0.1-3.4C502.6,231.7,502.7,230.3,503.5,229.3z" />
    <path d="M563.8,289.8l-5.9-11.2c-0.7-1.3-1.6-2.3-2.8-3c0,0-0.1,0-0.1-0.1c0,0,0,0-0.1,0c-0.1,0-0.1-0.1-0.2-0.1       c-0.9-0.5-1.5-1.4-1.7-2.4l0-5.6c0-1.7-1.2-3.1-2.9-3.4l0,0c-1-0.2-1.8-1.1-1.8-2.2h0l0-2.9c0-1.2-1-2.2-2.2-2.2       c-1.2,0-2.2,1-2.2,2.2l0,9.6l0,0c-0.1,0.7-0.6,1.3-1.2,1.6c-0.6,0.3-1.2,0.3-1.8,0.1l-4.2-2.7c-1-0.8-1.4-2-1.2-3.2v0       c0.3-0.8,0.3-1.6,0-2.5c-0.7-1.8-2.7-2.7-4.5-2.1l-21.8,8c-1.5,0.6-2.4,2.1-2.3,3.7c-0.1,1.1-0.8,2.1-1.9,2.6l-12.3,4.5       c-1.5,0.5-2.4,2-2.3,3.5c0,0,0,0,0,0v23.4c0,2.2,1.7,3.9,3.9,3.9c0,0,0.1,0,0.1,0c0.4,0,0.9,0,1.3-0.2l22-7l0,0       c1.5-0.6,3.2,0,4.1,1.3l4.3,5.9c0.6,0.8,1.5,1.3,2.4,1.5l0,0l0,0c0.2,0,0.4,0.1,0.6,0.1c1.3,0.3,2.5,1.3,2.7,2.7l0,0       c0.4,3.1,2.2,6.1,5.1,7.8c5,2.8,11.3,1.1,14.1-3.9l11.6-19.8C564.7,295.6,565.2,292.5,563.8,289.8z" />
    <path d="M344.6,25.3c0,0.8,0.7,1.4,1.5,1.4l6.5-0.3c0.8,0,1.4-0.7,1.4-1.5l-0.1-2.5c0-0.8-0.7-1.4-1.5-1.4l-6.5,0.3       c-0.8,0-1.4,0.7-1.4,1.5L344.6,25.3z" />
    <path d="M342.1,26.1c0-0.5-0.5-0.9-1-0.9l-4.2,0.3c-0.5,0-0.9,0.5-0.9,1l0.1,1.6c0,0.5,0.5,0.9,1,0.9l4.2-0.3       c0.5,0,0.9-0.5,0.9-1L342.1,26.1z" />
    <path d="M561.5,254.4l-4.1-1.9c-1.1-0.6-1.5-1.9-1.1-3.1c0.6-1.5-0.1-3.1-1.5-3.8l-15.8-7.4c-1.2-0.6-2.6-0.3-3.4,0.6       c0,0-0.1,0-0.1,0c-1,1-2.5,1.4-3.8,0.8l0,0l-3.4-1.6c-0.9-0.4-2,0-2.5,0.9c-0.4,0.9,0,2,0.9,2.5l11,5.1l0,0       c1.1,0.5,1.6,1.7,1.4,2.8l0,0c-0.3,1.2,0.3,2.5,1.4,2.9l5.9,2.6c1.1,0.4,2.3,0,2.9-0.9l0,0c0.5-1.1,1.7-1.6,2.8-1.3l8.3,3.9       c0.6,0.3,1.3,0,1.6-0.6C562.3,255.4,562,254.7,561.5,254.4z" />
    <path d="M287.9,132.8c-0.1-0.4-0.4-0.7-0.8-0.8l0,0c-0.1,0-0.1-0.1-0.2-0.1c0-0.1,0-0.1,0-0.2l0,0l1-1.2       c0.6-0.7,0.5-1.7-0.2-2.3c-0.4-0.3-0.9-0.5-1.4-0.3l0,0c-0.4,0.1-0.8-0.1-1-0.4l-4.4-6.9c-0.2-0.3-0.6-0.6-1-0.6       c-0.1,0-0.2-0.1-0.2-0.2c-0.1-0.1-0.1-0.2-0.1-0.3l1.7-3.1c0.1-0.1,0.1-0.2,0-0.4c0,0,0-0.1,0-0.1c0-0.3-0.2-0.5-0.5-0.5       l-2.5,0.1c-0.1,0-0.2-0.1-0.2-0.1c-0.1-0.1-0.1-0.2-0.1-0.3l0.4-0.9c0.2-0.5,0-1.1-0.5-1.3c-0.5-0.2-1.1,0-1.3,0.5l-2,4.5       c-0.1,0.1-0.1,0.3-0.1,0.4c0,0.2,0,0.4,0.1,0.6l2.4,4.3c0.3,0.5,0.8,0.6,1.3,0.4l0,0c0.1,0,0.2,0,0.3,0       c0.1,0.1,0.1,0.1,0.1,0.2l0,0c-0.1,0.2-0.1,0.4-0.1,0.7l0.6,2.5c0.1,0.4-0.2,0.9-0.7,1l0,0c-0.5,0.1-0.8,0.5-0.8,1l0.2,3.5       c0,0.5,0.5,1,1.1,0.9c0,0,0.1,0,0.1,0l0,0c0.1,0,0.2,0,0.3,0.2c0,0.1,0,0.2-0.2,0.3l-1.3,0.3c-0.6,0.1-0.9,0.7-0.8,1.3v0       c0.1,0.6,0.7,0.9,1.3,0.8l8.6-2.1C287.7,133.9,288,133.4,287.9,132.8L287.9,132.8z" />
    <path d="M273.6,122.3c-0.9-0.3-1.9,0.3-2.1,1.2l-0.3,1.1c-0.1,0.2-0.3,0.4-0.6,0.4l-1.4,0c-0.7,0-1.3,0.5-1.3,1.2v0       c0,0.7,0.5,1.3,1.2,1.3l0.1,0l0,0c0.1,0,0.2,0.1,0.3,0.2c0.1,0.1,0.1,0.2,0,0.4c0,0,0,0,0,0l-1,1.9c0,0,0,0,0,0       c0,0.1-0.1,0.1-0.2,0.1l-0.1,0c-0.7,0.2-1,0.9-0.8,1.6l0,0c0.2,0.7,0.9,1,1.6,0.8l4.8-1.6l0,0c0.2,0,0.4-0.2,0.4-0.4l0.6-3.4       c0-0.2-0.1-0.4-0.3-0.5l0,0c-0.1-0.1-0.1-0.1-0.1-0.2l0.5-1.8C275,123.6,274.5,122.6,273.6,122.3z" />
</g>

</svg>
